<?xml version="1.0" encoding="UTF-8"?><svg id="Capa_2" xmlns="http://www.w3.org/2000/svg" viewBox="0 0 533.03 567.87"><defs><style>.cls-1{fill:#eb3939;}.cls-2{fill:#fff;}.cls-3{fill:#14bbee;}.cls-4{fill:#320303;}.cls-5{fill:#f24c4c;}.cls-6{fill:#fda7a7;}</style></defs><g id="Capa_1-2"><g><path class="cls-5" d="m130.1,276.67c2.28-11.17,6.8-21.62,10.32-32.39,2.64-8.08,6.51-15.74,10.34-23.08,5.97-11.47,11.44-23.31,19.19-33.97,4.41-6.07,8-12.99,12.29-19.29,5.05-7.42,10.47-14.61,15.68-21.91,6.54-9.15,13.72-17.85,21.01-26.22,7.11-8.17,13.38-17.18,21.85-24.38,5.15-4.37,9.33-10.27,14.25-15.18,8.56-8.56,17.31-16.94,26.02-25.35,11.06-10.68,23.37-19.82,35.57-29.13,9.76-7.45,18.84-15.79,28.46-23.44,4.91-3.9,7-2.95,8.86,3.14.52,1.71,1.96,3.07,1.86,5.01-2.43,3.33-.92,7.28-.58,10.47,2.2,20.97,5.71,41.73,12.54,61.81,4.66,13.7,9.82,27.15,15.77,40.37,5.34,11.86,11.02,23.55,17.09,34.99,7.01,13.21,14.72,26.04,21.67,39.31,12.84,24.52,25.43,49.11,35.62,74.89,4.86,12.3,7.96,25.16,10.33,37.94,1.97,10.66,2.45,21.81,1.76,33.01-.99,16.02-3.77,31.46-9.45,46.34-4.28,11.23-9.97,21.81-16.97,31.67-7.15,10.06-15.72,18.81-24.29,27.61-8.62,8.85-18.55,16.02-29.16,21.97-11.9,6.68-24.29,12.37-37.54,16.49-14.04,4.37-28.27,6.25-42.7,7.28-9.91.71-19.8-.29-29.71-1.74-15.95-2.34-31.02-6.62-44.21-16.19-10.94-7.94-17.86-18.17-16.84-32.31.59-8.2,1.96-16.42,3.43-24.4,3.2-17.38,1.45-34.54-1.16-51.39-3.05-19.67-11.01-37.98-23.5-53.89-4.66-5.94-10.69-10.13-17.86-12.62-2.5-1.7-5.4-3.03-7.42-5.18-6.42-6.82-15-9.89-23.08-13.81-1.52-.74-2.63-2.44-4.8-2.12-5.51.83-9.98-2.15-14.66-4.33Zm149.61-178.33c-6.46-.25-11.99,1.83-17.37,5.55-12.12,8.38-22.33,18.06-24.9,33.34-1.12,6.66-2.18,14.13,4.29,18.66,7.91,5.55,16.71,4.6,25.19.66,6.33-2.94,11.35-7.68,15.69-12.95,6.03-7.32,12.56-14.44,14.33-24.35,2.59-14.46-2.7-20.94-17.23-20.92Zm-39.71,83.89c.74-4.91-1.02-9.17-5.59-11.97-3.73-2.29-17.29-1.07-20.52,1.95-7.47,6.97-11.56,15.54-10.73,25.92.66,8.33,9.67,14.28,17.3,11.73,9.43-3.14,20.65-16.62,19.54-27.63Zm168.75,171.82c1.84-11.73-9.6-19.94-17.99-20.26-9.33-.36-19.05,10.34-18.88,19.09.23,11.95,7.96,20.96,18.7,21.11,10.74.14,18.1-7.94,18.17-19.94Zm-134.76-.44c-.46-13.67-8.49-19.14-18.25-19.82-8.83-.62-19.74,10.47-19.02,20.31.78,10.62,8.64,19.78,18.27,19.86,9.79.08,20.24-9.08,19-20.35Zm-19.71,46.25c3.1.48,6.16-.11,8.8-1.29,4.1-1.84,8.69-3.49,9.21-9.25.45-4.94-1.66-8.12-5.85-10.37-6.83-3.68-19.17-2.23-24.83,3.03-5.18,4.81-4.74,10.3,1.19,14.39,3.46,2.39,7.14,4.14,11.48,3.49Zm137.02.1c4.4.09,8.03-.99,11.5-3.38,6.4-4.42,6.96-9.88,1.16-15.05-5.27-4.7-16.98-6.36-23.06-2.94-3.85,2.16-7.26,5.21-7.06,10.09.19,4.69,3.63,7.32,7.64,8.98,3.21,1.33,6.5,2.61,9.82,2.31Zm-88.37-20.36c-.07,1.51-.24,3.01,1.48,3.87,1.54.77,2.74.35,4.13-.54,1.85-1.18,2.42-3.07,3.36-4.81,2.45-4.49,6.11-6.59,11.41-6.34,4.53.21,7.25,2.21,8.85,6.31.46,1.17,1.72,2,2.44,3.1,1.25,1.9,2.57,3.78,5.11,2.18,2.36-1.49,2.52-3.7,1.28-6.11-5.39-10.43-13.94-15.55-25.47-11.62-6.45,2.2-10.96,6.99-12.59,13.96Z"/><path class="cls-1" d="m180.05,302.1c7.17,2.49,13.2,6.68,17.86,12.62,12.48,15.91,20.45,34.22,23.5,53.89,2.61,16.85,4.37,34.02,1.16,51.39-1.47,7.98-2.84,16.2-3.43,24.4-1.02,14.14,5.91,24.37,16.84,32.31,13.18,9.57,28.26,13.85,44.21,16.19,9.9,1.45,19.79,2.45,29.71,1.74,14.43-1.04,28.66-2.91,42.7-7.28,13.25-4.12,25.63-9.81,37.54-16.49,10.61-5.95,20.54-13.12,29.16-21.97,8.57-8.8,17.14-17.55,24.29-27.61,7-9.86,12.68-20.45,16.97-31.67,5.68-14.87,8.46-30.32,9.45-46.34.69-11.2.21-22.35-1.76-33.01-2.37-12.79-5.47-25.64-10.33-37.94-10.19-25.78-22.77-50.37-35.62-74.89-6.95-13.27-14.67-26.1-21.67-39.31-6.07-11.44-11.76-23.13-17.09-34.99-5.95-13.22-11.11-26.67-15.77-40.37-6.83-20.08-10.34-40.84-12.54-61.81-.33-3.19-1.85-7.14.58-10.47,4.14,9.24,8.19,18.53,12.45,27.72,3.11,6.72,6.48,13.31,9.73,19.96-.34,3.82-.57,7.58,4.69,8.22,4.14,8.87,10.43,16.4,15.5,24.69,2.35,3.84,5.11,7.44,7.68,11.15-.25,1.91.49,3.3,1.61,4.92,4.44,6.42,9.49,12.42,13.84,18.84,10.07,14.87,21.56,28.61,32.4,42.87,3.44,4.53,7.75,8.32,10.43,13.66.99,1.98,2.75,6.62,7.29,5.73,3.45,5.27,6.89,10.54,10.34,15.81-.24,2.48-.47,4.95-.84,8.86,1.84-2.66,3.49-2.4,5.17-1.9,4.93,5.88,7.61,13.11,11.62,19.52,6.59,10.57,10.94,22.19,16,33.46,2.21,4.93,2.71,10.64,3.98,15.99-.37,3.83.3,7.54,1.11,11.27,1.08,4.96,2.42,9.94,2.72,14.97.78,13.15,3.12,26.21,2.13,39.46-.05.73.49,1.51.75,2.26-1.35,7.94-2.98,15.85-3.99,23.83-1.3,10.25-6.03,19.38-8.83,29.14-.29.36-.58.71-.87,1.07,0,0,.02-.02.02-.02-3.96,3.3-5.47,7.6-5.1,12.65-.7,1.48-1.41,2.96-2.11,4.44-2.36,1.79-2.81,4.64-3.97,7.1-2.73,1.7-3.76,4.76-5.19,7.3-5.46,9.71-12.98,17.64-20.78,25.37-.28.34-.55.67-.83,1.01,0,0-.06.04-.06.04-3.58.6-5.84,2.58-6.55,6.21,0,0-.19.14-.19.14-.59-.13-.94.13-1.1.69,0,0-.03.04-.03.04-1.82.93-3.93,1.54-5.41,2.86-2.69,2.4-6.69,3.85-6.91,8.34-.06.24-.21.37-.45.4-3.63-1.74-5.19.32-6.2,3.38-7.45,6.84-16.55,11.05-25.22,15.96-14.78,8.35-30.44,14.35-46.98,18.1-1.06.24-1.98,1.1-2.97,1.67-2.65.18-5.44-.46-7.82,1.35-5.55-.38-10.64,2.56-16.18,2.26-6.38-.35-12.29,3.06-18.71,2.34-6.67-1.57-13.4-.64-20.11-.56-3.97-.76-8.14.7-12.01-1.08-.05-2.5-1.89-2.2-3.5-2.2-3.58,0-7.16.04-10.74.06-2.32.39-4.26-1.97-6.67-.9-12.28-1.22-23.67-5.63-35.13-9.78-15.85-5.73-30.23-14.28-44.24-23.48-2.04-1.34-3.68-3.29-5.5-4.96.68-.98,1.36-1.95,2.04-2.93,2.38.45,4.38-.49,5.29-2.52.72-1.62-1.4-1.76-2.35-2.46,11.59-18.66,17.06-39.26,19.27-60.89,1.45-.25,1.77-1.26,1.76-2.54-.01-6.96-.01-13.91,0-20.87,0-1.29-.32-2.29-1.76-2.55-.18-4.75-.7-9.56-1.54-14.13-2.07-11.32-4.86-22.61-9.77-33.1-5-10.68-9.54-21.75-18.62-29.94-2.03-1.83-2.92-4.4-4.33-6.64Z"/><path class="cls-3" d="m180.05,302.1c1.41,2.23,2.3,4.8,4.33,6.64,9.08,8.19,13.62,19.26,18.62,29.94,4.91,10.48,7.7,21.77,9.77,33.1.83,4.57,1.36,9.38,1.54,14.13,0,8.65,0,17.31,0,25.96-2.21,21.63-7.68,42.23-19.27,60.89l-2.94,4.98c-.68.98-1.36,1.95-2.04,2.93-4.5,6.19-9.9,11.58-15.41,16.84-4.97,4.74-11.13,7.78-17.34,10.42-6.43,2.74-7.44,4.01-5.82,10.71,2.1,8.72,3.44,17.6,5.54,26.34,2.08,8.68-4.73,16.15-14.01,16.52-9.61.39-14.84-1.8-16.7-7.61-1.65-5.15-2.87-10.45-4.01-15.74-1.24-5.74-2.25-11.53-3.19-17.32-.46-2.86-2.44-2.66-4.45-2.74-10.83-.4-21.58-1.42-31.48-6.28-7.93-3.89-15.94-7.45-23.02-13.16-5.26-4.24-10.03-9.13-15.71-12.83-2.02-1.32-2.8-3.12-3.45-5.18-.46-2.11,2.01-2.7,2.3-4.4,1.48-8.61-6-21.57-13.74-25.44-4.13-2.07-8.4-.8-12.57-1.3-.72-5.69-4.08-10.43-6.2-15.54-2.32-5.63-3.17-11.55-5.28-17.17C-.44,400.96-.43,384.31.38,367.72c.47-9.63,2.79-18.85,6.27-28.01,5.28-13.92,14.22-25.16,24.43-35.26,9.91-9.8,22.29-16.4,35.36-21.39,10.47-4,21.48-5.71,32.5-7.25,6.85-.01,13.7-.03,20.56-.04,3.53.32,6.9,2.59,10.6.89,4.67,2.18,9.15,5.16,14.66,4.33,2.16-.32,3.27,1.38,4.8,2.12,8.08,3.92,16.66,6.98,23.08,13.81,2.02,2.15,4.92,3.47,7.42,5.18Zm-115.03,145.53c1.97,0,3.13.03,4.29,0,7.91-.25,15.29-3.41,22.92-4.57,14.28-2.18,28.16-5.97,42.23-8.93,10.46-2.2,20.98-3.96,31.35-6.92,8.88-2.53,15.88-6.64,21.79-13.33.51-.58,1.15-.85,1.37-1.79,2.5-10.67-.45-20.93-2.38-31.23-1.25-6.66-2.75-13.28-4.46-19.84-3.1-11.88-3.41-24.36-8.79-35.8-4.87-10.36-10.97-15.22-22.21-15.26-6.59-.03-12.9,1.7-19.34,2.85-17.37,3.08-34.51,7.16-51.78,10.68-10.45,2.13-20.87,4.42-31.35,6.42-8.74,1.67-16.71,4.13-22.5,11.83-4.33,5.77-5.7,11.69-4.2,18.47,1,4.53,3.17,9.01,3.19,13.52.03,8.79,4.24,16.55,4.91,25.23.7,8.99,3.37,17.83,5.28,26.71,1.79,8.34,6.73,15.04,13.92,18.74,4.74,2.44,10.6,4.39,15.74,3.23Zm83.14,95.56c-1.02-5.62-2.15-12.06-3.39-18.47-.61-3.18-.45-7.35-2.41-9.23-2.64-2.53-6.44.24-9.67,1.25-.3.1-.66,0-.99.04-4.33.43-5.9,2.55-4.15,6.51,2.11,4.79,1.96,9.88,2.9,14.83.77,4.06,2.1,8.1,3.82,11.85,1.69,3.69,5.39,4.47,8.9,3.23,4.08-1.45,5.04-5.18,4.99-10.01Zm-13.33-86.29c-2.97.16-6.43-.44-5.39,3.12,1.24,4.25,1.74,8.62,2.85,12.87.58,2.23,1.8,2.26,3.2,1.21,3.86-2.89,7.74-5.79,11.3-9.03,1.27-1.15.92-3.3-.97-4.08-3.83-1.59-7.77-2.91-11-4.09Zm-16.44,18.87c-.73-3.72-1.43-7.24-2.11-10.76-.31-1.61-.56-3.5-2.27-3.99-1.76-.5-3.42.32-4.8,1.73-2.09,2.15-4.39,4.09-6.54,6.18-2.53,2.45-2.46,4.64,1.04,5.96,3.64,1.38,7.32,2.74,11.08,3.68,1.89.47,3.89-.17,3.59-2.81Z"/><path class="cls-4" d="m499.55,426.13c1.16-2.46,1.61-5.31,3.97-7.1,4.07,6.25,9.55,11.49,13.08,18.12,7.99,15.01,11.26,30.87,8.3,47.77-.36,2.08-.42,3.56,1.76,4.94,7.03,4.48,6.94,11.87,5.77,18.59-1.11,6.33-6.83,9.04-12.85,10.21-4.99.97-11.51-5.37-11.84-11.5-.13-2.36-.59-4.02-2.65-5.68-3.58-2.88-2.44-8.54,1.97-11.45,1.34-.88,2.83-2.05,4.3-2.11,6.6-.27,7.04-5.08,7.18-9.72.62-19.85-4.62-37.65-18.99-52.07Z"/><path class="cls-4" d="m16.99,449.52c4.18.49,8.44-.77,12.57,1.3,7.73,3.87,15.22,16.83,13.74,25.44-.29,1.71-2.77,2.29-2.3,4.4-.82.07-1.68,0-2.46.22-9.62,2.7-16.94-.34-22.21-9.33-2.59-4.41-4.25-9-4.1-14.32.11-3.78,1.37-6.25,4.76-7.71Z"/><path class="cls-4" d="m362.86,518.98c2.37-1.8,5.16-1.17,7.82-1.35-1.92,10.31-3.89,20.61-5.73,30.93-.42,2.37.96,2.09,2.73,1.69,5.01-1.13,10.04-1.34,14.63,1.55,3.7,2.33,5.37,5.7,4.58,10.12-.68,3.8-4.15,4.95-6.83,5.32-6.13.86-12.45,1.16-18.44-1.27-4.79-1.94-5.89-6.28-4.55-13.07,2.22-11.25,3.89-22.61,5.79-33.93Z"/><path class="cls-4" d="m274.93,518.89c2.41-1.08,4.35,1.29,6.67.9.19.58.37,1.17.55,1.75,2.26,12.03,4.6,24.04,6.73,36.09.58,3.27-.39,5.99-3.91,7.48-6.37,2.68-13.03,3.07-19.7,2.41-2.97-.29-5.95-1.92-7.02-5.25-1.01-3.16.6-5.49,2.46-7.97,4.21-5.62,10.09-5.53,15.68-4.19,3.94.94,4.29-.58,3.43-3.08-2.48-7.22-2.07-15.02-4.72-22.2-.65-1.76-.15-3.95-.17-5.94Z"/><path class="cls-5" d="m471.42,188.23c-4.53.89-6.29-3.75-7.29-5.73-2.68-5.34-6.99-9.13-10.43-13.66-10.84-14.26-22.33-28-32.4-42.87-4.35-6.42-9.4-12.42-13.84-18.84-1.12-1.62-1.86-3.02-1.61-4.92,9.22,11.36,17.73,23.26,26.66,34.82,9.38,12.16,19.22,24.01,28.46,36.3,3.63,4.83,7.83,9.32,10.45,14.89Z"/><path class="cls-5" d="m524.4,347.93c-.26-.76-.81-1.53-.75-2.26.99-13.24-1.35-26.31-2.13-39.46-.3-5.03-1.64-10.01-2.72-14.97-.81-3.73-1.48-7.44-1.11-11.27,3.39,9.74,4.55,19.92,6.01,30.05.29,2.05-.73,4.27.8,6.15.08,8.94.16,17.89.23,26.83-.11,1.64-.22,3.29-.32,4.93Z"/><path class="cls-5" d="m452.5,478.13c.22-4.48,4.22-5.93,6.91-8.34,1.48-1.32,3.59-1.93,5.41-2.86-1.26,4.58-6.14,5.53-8.9,8.66-.74.84-2,2.08-3.42,2.54Z"/><path class="cls-5" d="m282.16,521.54c-.18-.58-.37-1.17-.55-1.75,3.58-.02,7.16-.06,10.74-.06,1.6,0,3.44-.3,3.5,2.2-4.56-.13-9.12-.26-13.69-.39Z"/><path class="cls-5" d="m486.09,210.99c-1.67-.49-3.32-.76-5.17,1.9.37-3.91.61-6.38.84-8.86,2.63,1.58,3.87,4.03,4.33,6.96Z"/><path class="cls-5" d="m505.63,414.59c-.37-5.05,1.14-9.35,5.1-12.65-.48,4.71-3.37,8.44-5.1,12.65Z"/><path class="cls-6" d="m119.5,275.78c-6.86.01-13.71.03-20.56.04,6.86-1.05,13.71-.89,20.56-.04Z"/><path class="cls-6" d="m307.86,523.01c6.71-.08,13.45-1.01,20.11.56-6.71.04-13.45.93-20.11-.56Z"/><path class="cls-5" d="m382.67,66.38c-5.26-.63-5.02-4.39-4.69-8.22,2.04,2.46,3.64,5.18,4.69,8.22Z"/><path class="cls-5" d="m466.15,466.06c.71-3.62,2.97-5.61,6.55-6.21-1.55,2.74-4,4.52-6.55,6.21Z"/><path class="cls-5" d="m445.85,481.91c1.01-3.06,2.57-5.12,6.2-3.38-2.19.9-3.51,3.41-6.2,3.38Z"/><path class="cls-5" d="m510.72,401.96c.29-.36.58-.71.87-1.07.09.66-.34.91-.87,1.07Z"/><path class="cls-5" d="m472.75,459.81c.28-.34.55-.67.83-1.01.11.66-.24.93-.83,1.01Z"/><path class="cls-5" d="m464.85,466.89c.16-.56.51-.82,1.1-.69-.37.23-.73.46-1.1.69Z"/><path class="cls-2" d="m279.72,98.34c14.52-.02,19.81,6.45,17.23,20.92-1.77,9.91-8.3,17.03-14.33,24.35-4.34,5.27-9.36,10.01-15.69,12.95-8.48,3.94-17.28,4.89-25.19-.66-6.46-4.53-5.41-12-4.29-18.66,2.57-15.28,12.78-24.96,24.9-33.34,5.38-3.72,10.9-5.8,17.37-5.55Z"/><path class="cls-2" d="m240.01,182.23c1.11,11.01-10.11,24.48-19.54,27.63-7.63,2.54-16.63-3.4-17.3-11.73-.83-10.38,3.25-18.95,10.73-25.92,3.23-3.02,16.79-4.23,20.52-1.95,4.58,2.81,6.33,7.06,5.59,11.97Z"/><path class="cls-4" d="m408.76,354.05c-.06,12.01-7.43,20.09-18.17,19.94-10.74-.14-18.47-9.16-18.7-21.11-.17-8.76,9.55-19.45,18.88-19.09,8.39.32,19.84,8.53,17.99,20.26Zm-21.33-8.08c-3.71-.26-6.32,1.48-6.46,5.36-.12,3.44,1.16,6.46,5.47,6.59,4.22.13,7.7-2.46,7.32-5.99-.36-3.38-1.89-6.28-6.32-5.96Z"/><path class="cls-4" d="m274,353.61c1.24,11.27-9.21,20.44-19,20.35-9.63-.08-17.48-9.24-18.27-19.86-.72-9.84,10.19-20.93,19.02-20.31,9.76.68,17.79,6.15,18.25,19.82Zm-23.75,4.3c5.3-.04,9.01-3.39,8.87-6.75-.13-3.17-3.72-6.35-7-6.2-3.39.15-6.36,3.33-6.04,6.79.31,3.32,1.7,5.94,4.16,6.16Z"/><path class="cls-6" d="m254.29,399.86c-4.34.65-8.02-1.1-11.48-3.49-5.93-4.09-6.37-9.58-1.19-14.39,5.66-5.25,18-6.7,24.83-3.03,4.19,2.25,6.3,5.43,5.85,10.37-.52,5.76-5.11,7.41-9.21,9.25-2.64,1.18-5.7,1.76-8.8,1.29Z"/><path class="cls-6" d="m391.31,399.96c-3.32.31-6.61-.98-9.82-2.31-4.01-1.66-7.45-4.29-7.64-8.98-.2-4.88,3.21-7.92,7.06-10.09,6.08-3.42,17.79-1.75,23.06,2.94,5.8,5.17,5.24,10.63-1.16,15.05-3.46,2.39-7.1,3.47-11.5,3.38Z"/><path class="cls-4" d="m302.93,379.59c1.64-6.96,6.15-11.76,12.6-13.95,11.54-3.93,20.08,1.19,25.47,11.62,1.24,2.41,1.08,4.62-1.28,6.11-2.54,1.6-3.85-.28-5.11-2.18-.72-1.1-1.99-1.93-2.44-3.1-1.61-4.1-4.32-6.1-8.85-6.31-5.3-.25-8.96,1.85-11.41,6.34-.95,1.73-1.51,3.63-3.36,4.81-1.39.89-2.59,1.31-4.13.54-1.72-.86-1.56-2.36-1.49-3.87Z"/><path class="cls-5" d="m214.3,411.86c0-8.65,0-17.31,0-25.96,1.45.26,1.77,1.26,1.76,2.55-.02,6.96-.02,13.91,0,20.87,0,1.29-.32,2.29-1.76,2.54Z"/><path class="cls-5" d="m192.1,477.73c.98-1.66,1.96-3.32,2.94-4.98.96.7,3.07.85,2.35,2.46-.91,2.03-2.91,2.97-5.29,2.52Z"/><path class="cls-4" d="m65.03,447.63c-5.14,1.16-11-.79-15.74-3.23-7.19-3.7-12.13-10.4-13.92-18.74-1.91-8.88-4.58-17.72-5.28-26.71-.67-8.68-4.89-16.44-4.91-25.23-.01-4.51-2.18-8.98-3.19-13.52-1.5-6.78-.14-12.69,4.2-18.47,5.78-7.7,13.76-10.16,22.5-11.83,10.48-2,20.89-4.29,31.35-6.42,17.27-3.52,34.41-7.6,51.78-10.68,6.44-1.14,12.75-2.87,19.34-2.85,11.24.05,17.33,4.9,22.21,15.26,5.38,11.44,5.69,23.91,8.79,35.8,1.71,6.56,3.21,13.18,4.46,19.84,1.94,10.31,4.89,20.56,2.38,31.23-.22.94-.86,1.21-1.37,1.79-5.92,6.69-12.91,10.8-21.79,13.33-10.36,2.96-20.89,4.71-31.35,6.92-14.07,2.97-27.95,6.76-42.23,8.93-7.64,1.16-15.01,4.32-22.92,4.57-1.16.04-2.33,0-4.29,0Zm27.13-92.67c-1.3,0-1.98.09-2.63-.01-9.77-1.64-18.11,11.03-17.17,18.46.42,3.26,1.15,6.55,5.69,6.54,4.15-.01,5.52-2.09,5.29-5.97-.07-1.21.52-2.48.94-3.68,1.03-2.97,3-4.39,6.31-4.45,3.49-.07,6.77.11,8.37,3.65,1.42,3.13-.9,5.27-2.91,7.17-3.1,2.94-6.68,5.41-9.5,8.58-6.07,6.82-8.03,14.86-5.16,23.66,1.12,3.43,2.93,5.28,7.67,4.26,8.79-1.9,17.44-4.34,26.21-6.23,3.87-.83,6.65-2.37,5.86-6.81-.54-3.04-5.01-4.67-8.92-3.68-5.96,1.51-11.92,2.98-17.91,4.37-.89.21-2.13.67-2.79-.28-.56-.79-.24-1.78.22-2.75,2.02-4.26,5.32-7.28,8.96-10.15,8.15-6.43,12.83-15,7.62-24.19-3.7-6.51-9.28-9.42-16.15-8.47Zm47.3-1c-2.95,7.27-3.95,14.38-4.94,21.44-1.05,7.48-.2,14.99,2.61,22.04,1.76,4.43,5.62,4.69,8.85,1.22,2.06-2.21,1.38-4.73,1.02-7.02-2.16-14.05-1.13-27.58,6.26-40.08,1.58-2.68,2.84-5.42,1.54-8.29-1.46-3.2-4.77-2.26-7.49-2.31-.98-.02-2.01.04-2.94.32-8.2,2.49-16.63,3.94-24.98,5.76-3.12.68-5.42,2.81-5.04,6.22.36,3.23,2.27,5.14,6.02,4.72,6.25-.71,12.3-2.37,19.08-4.02Zm-62.94,56.66c-3.41-15.26-6.64-30.58-10.36-45.77-1.14-4.64-8.25-5.14-11.13-.99-2.18,3.15-3.87,6.65-5.93,9.89-1.6,2.52-.82,4.87.62,6.85,1.2,1.64,2.88,2.72,5.45,1.51,1.24-.59,3.66-1.2,4.28,2.18,1.69,9.33,3.78,18.59,6.04,27.8.78,3.18,2.96,5.4,6.85,4.8,3.81-.58,4.15-3.19,4.17-6.28Z"/><path class="cls-2" d="m148.17,543.19c.05,4.83-.91,8.56-4.99,10.01-3.52,1.25-7.21.47-8.9-3.23-1.72-3.76-3.06-7.8-3.82-11.85-.93-4.94-.78-10.04-2.9-14.83-1.75-3.96-.18-6.09,4.15-6.51.33-.03.69.06.99-.04,3.23-1.01,7.04-3.78,9.67-1.25,1.96,1.88,1.8,6.05,2.41,9.23,1.24,6.41,2.36,12.85,3.39,18.47Z"/><path class="cls-2" d="m134.84,456.9c3.23,1.18,7.17,2.5,11,4.09,1.88.78,2.23,2.93.97,4.08-3.56,3.23-7.44,6.13-11.3,9.03-1.4,1.05-2.62,1.02-3.2-1.21-1.11-4.25-1.61-8.61-2.85-12.87-1.04-3.56,2.42-2.96,5.39-3.12Z"/><path class="cls-2" d="m118.4,475.77c.3,2.64-1.7,3.28-3.59,2.81-3.77-.94-7.44-2.3-11.08-3.68-3.5-1.33-3.57-3.51-1.04-5.96,2.15-2.09,4.45-4.03,6.54-6.18,1.38-1.42,3.03-2.23,4.8-1.73,1.71.48,1.97,2.38,2.27,3.99.67,3.52,1.38,7.04,2.11,10.76Z"/><path class="cls-2" d="m387.43,345.97c4.44-.32,5.96,2.58,6.32,5.96.38,3.54-3.1,6.12-7.32,5.99-4.3-.13-5.59-3.15-5.47-6.59.14-3.88,2.75-5.62,6.46-5.36Z"/><path class="cls-2" d="m250.25,357.91c-2.46-.22-3.85-2.84-4.16-6.16-.33-3.46,2.65-6.64,6.04-6.79,3.28-.15,6.87,3.03,7,6.2.14,3.36-3.57,6.71-8.87,6.75Z"/><path class="cls-2" d="m92.16,354.96c6.86-.95,12.45,1.96,16.15,8.47,5.21,9.19.53,17.76-7.62,24.19-3.63,2.87-6.94,5.89-8.96,10.15-.46.97-.78,1.96-.22,2.75.66.95,1.9.48,2.79.28,5.99-1.39,11.95-2.86,17.91-4.37,3.91-.99,8.38.63,8.92,3.68.79,4.44-1.99,5.98-5.86,6.81-8.78,1.89-17.42,4.34-26.21,6.23-4.74,1.02-6.55-.83-7.67-4.26-2.87-8.8-.91-16.83,5.16-23.66,2.82-3.17,6.4-5.65,9.5-8.58,2.01-1.9,4.32-4.04,2.91-7.17-1.6-3.54-4.88-3.71-8.37-3.65-3.32.06-5.28,1.48-6.31,4.45-.42,1.2-1.01,2.48-.94,3.68.24,3.88-1.14,5.95-5.29,5.97-4.55.01-5.28-3.28-5.69-6.54-.95-7.44,7.4-20.1,17.17-18.46.65.11,1.33.01,2.63.01Z"/><path class="cls-2" d="m139.45,353.96c-6.78,1.65-12.83,3.31-19.08,4.02-3.75.43-5.66-1.49-6.02-4.72-.38-3.41,1.92-5.54,5.04-6.22,8.35-1.82,16.78-3.27,24.98-5.76.93-.28,1.96-.34,2.94-.32,2.73.05,6.03-.89,7.49,2.31,1.31,2.86.05,5.61-1.54,8.29-7.4,12.5-8.43,26.02-6.26,40.08.35,2.29,1.03,4.82-1.02,7.02-3.23,3.47-7.09,3.22-8.85-1.22-2.81-7.05-3.65-14.56-2.61-22.04.99-7.06,1.99-14.17,4.94-21.44Z"/><path class="cls-2" d="m76.52,410.62c-.02,3.09-.37,5.7-4.17,6.28-3.9.59-6.07-1.63-6.85-4.8-2.26-9.21-4.35-18.47-6.04-27.8-.61-3.38-3.03-2.76-4.28-2.18-2.58,1.22-4.25.14-5.45-1.51-1.44-1.97-2.23-4.32-.62-6.85,2.06-3.24,3.75-6.74,5.93-9.89,2.88-4.15,9.99-3.65,11.13.99,3.72,15.19,6.94,30.5,10.36,45.77Z"/></g></g></svg>